<?xml version="1.0" encoding="UTF-8"?>
<svg id="Layer_2" data-name="Layer 2" xmlns="http://www.w3.org/2000/svg" viewBox="0 0 396.56 442.25">
  <defs>
    <style>
      .cls-1 {
        fill: #ed1c24;
      }

      .cls-1, .cls-2 {
        fill-rule: evenodd;
      }

      .cls-3 {
        fill: none;
      }

      .cls-2 {
        fill: #034ea2;
      }
    </style>
  </defs>
  <g id="Layer_1-2" data-name="Layer 1">
    <g>
      <rect class="cls-3" y="60.25" width="317.92" height="321.75"/>
      <g>
        <path class="cls-2" d="m201.59,73.51c36.6-.09,66.89,2.66,85.61,26.21,19.77,24.86,12.07,60.79-11.18,75.53-14.09,8.93-26.59,7.45-45.38,7.45-16.86,0-33.72-.06-50.58,0-1.16,8.47-1.5,64.08.42,70.31,44.48.84,91.94-3.58,117.77,22.9,27.39,28.09,13.38,69.95-25.14,86.51-23.37,10.04-101.59,7.13-133.49,7.13-22.33,0-126.54,1.28-139.55-.53v72.18c44.2.15,88.44,0,132.65,0,40.02,0,92.92,2.84,131.02-.94,117.97-9.69,156.16-106.68,119.31-171.77-19.27-34.04-46.97-38.89-59.7-47.37,35.57-26.41,71.91-80.38,55.99-132.11-13.18-42.85-61.43-77.91-111.36-85.14C232.43-2.5,174.1.91,135.49.91L.04.93l-.04,73.06,201.59-.48Z"/>
        <path class="cls-1" d="m236.7,349.61c60.81-9.73,62.86-62.64,3.02-73.34-31.11-5.56-121.59.73-163.17-2.19l-.31-12.05c1.57-2.85-2.54-3.65,10.93-3.36l78.88-.21-.31-75.1-89.69-.11.34-16.24,148.21.07c10.61,1.02,26.37-3.2,34.73-7.07,9.76-4.52,18.57-10.78,22.34-21.98,8.23-24.44-18.32-42.09-38.8-44.23-13.02-2.46-31.1-2.17-50.09-2.26H.35L.11,350.42c21.48,1.64,216.35,1.12,236.59-.8"/>
      </g>
    </g>
  </g>
</svg>